PathFileType	3	(X/Y/Z)	D:\minhoCalibration\240510\subject2_KPNP\preferred\preferred09.trc
DataRate	CameraRate	NumFrames	NumMarkers	Units	OrigDataRate	OrigDataStartFrame	OrigNumFrames
200.0	200.0	24	10	mm	200.0	424	221	
Frame#	Time	Left_Ankle_Outer1			Left_Ankle_Inner1			Left_Knee_Outer1			Left_Knee_Inner1			Left_Wrist1			Right_Wrist1			Right_Knee_Inner1			Right_Knee_Outer1			Right_Ankle_Inner1			Right_Ankle_Outer1			
		X1	Y1	Z1	X2	Y2	Z2	X3	Y3	Z3	X4	Y4	Z4	X5	Y5	Z5	X6	Y6	Z6	X7	Y7	Z7	X8	Y8	Z8	X9	Y9	Z9	X10	Y10	Z10	
424	2.11	-625.94092	96.72966	-715.2337	-649.42365	101.11668	-662.04761	-457.32944	510.90503	-687.55042	-512.83899	496.69049	-610.42328	-476.87912	965.1142	-775.65192	-710.63464	1103.1581	-556.96332	-504.50974	734.09998	-248.24292	-568.23029	796.62006	-211.01538	-723.66193	380.86121	-171.52237	-780.65265	432.28595	-104.59461
425	2.115	-625.64508	95.393303	-716.46082	-648.98785	99.146019	-665.01886	-458.35922	510.41812	-688.97852	-513.85687	496.19998	-611.80261	-475.63757	965.44128	-775.55029	-712.21759	1100.2246	-557.92444	-510.09357	726.32269	-251.63741	-575.95715	787.12207	-213.65637	-728.31232	370.23538	-191.33119	-788.98492	419.3089	-123.43357
426	2.12	-625.32605	94.176216	-717.74829	-649.73468	98.249931	-664.67676	-459.49268	509.69934	-690.14825	-515.06104	495.66983	-613.15894	-474.44714	965.76996	-775.51678	-713.71777	1097.0088	-558.94037	-515.91016	718.67712	-255.07014	-583.50189	777.74414	-216.97484	-734.68799	359.67505	-209.52827	-796.89362	407.8522	-140.57166
427	2.125	-624.90912	92.730286	-718.95325	-649.71783	97.97509	-667.034	-460.31989	509.0993	-691.04242	-516.39551	495.09869	-614.38739	-473.34061	966.19318	-775.43823	-715.2323	1093.6947	-560.08813	-521.99005	711.0791	-258.82983	-591.14728	768.45422	-220.77995	-739.93604	350.45389	-228.02242	-804.98663	395.34262	-160.77692
428	2.13	-624.54181	91.546188	-720.1286	-649.28467	95.617371	-669.29205	-461.14502	508.26251	-691.66541	-518.04114	494.47836	-615.46777	-472.19904	966.68109	-775.39276	-716.68451	1090.2527	-561.42737	-528.32806	703.37781	-262.75739	-598.81439	758.98364	-225.74352	-745.30908	341.17422	-246.97928	-812.28168	384.54309	-178.97934
429	2.135	-624.28821	90.396202	-721.04218	-649.71179	95.738838	-669.55164	-461.75134	507.49387	-691.94952	-519.76758	493.76926	-616.39722	-471.07562	967.1814	-775.36273	-718.30017	1086.9224	-562.84064	-534.75653	695.65204	-266.79803	-606.06183	750.0437	-230.74939	-751.78735	332.31439	-264.24603	-819.17401	373.95959	-198.12897
430	2.14	-624.24597	89.358719	-721.58716	-650.48932	94.409401	-670.41693	-462.2399	506.58618	-691.8877	-521.8092	493.05878	-617.23969	-469.828	967.6676	-775.28693	-719.97522	1083.6499	-564.36859	-541.4552	687.71503	-271.06763	-614.10846	740.86658	-235.46974	-756.23315	323.89374	-283.67737	-826.28033	363.16025	-218.28676
431	2.145	-624.43469	88.614838	-721.72888	-650.88556	93.537323	-671.01001	-462.32529	505.78809	-691.71271	-523.8089	492.35284	-618.01483	-468.63492	968.22064	-775.16357	-721.7868	1080.4459	-566.02734	-548.39423	679.77002	-275.4866	-621.85034	732.11505	-240.71443	-761.44019	315.76328	-302.134	-832.56702	352.65387	-238.73882
432	2.15	-624.74982	88.088577	-721.50049	-651.125	92.900024	-670.39325	-462.43353	504.96869	-691.26062	-525.82617	491.7919	-618.7417	-467.3978	968.90094	-774.94946	-723.67651	1077.2937	-567.87469	-555.56036	671.64313	-280.19638	-630.2959	724.27686	-244.40857	-765.18524	308.17804	-321.8555	-839.31	343.22189	-257.74109
433	2.155	-625.17084	87.752388	-721.06573	-651.65637	92.907555	-669.02222	-462.46793	504.21381	-690.5993	-527.73431	491.40131	-619.33698	-466.20163	969.38892	-774.66626	-725.64777	1074.1846	-569.8454	-562.67194	663.57422	-285.18365	-637.65826	715.28925	-251.49883	-770.38739	300.13885	-339.83994	-845.14465	334.32062	-276.80936
434	2.16	-625.70233	87.48542	-720.57538	-650.27686	91.205956	-670.43597	-462.62292	503.50897	-689.88452	-529.47876	491.14493	-619.80981	-464.83899	970.08398	-774.45282	-727.7511	1071.1271	-571.87927	-570.47046	655.55005	-290.08441	-645.58441	706.78528	-257.64276	-774.08813	293.25336	-358.25571	-850.93793	324.92075	-297.59665
435	2.165	-626.18854	87.231438	-720.09845	-651.31213	92.040558	-667.14325	-462.96738	503.07108	-689.25171	-531.02606	491.09772	-620.19128	-463.69839	970.69861	-773.70276	-729.90131	1068.0885	-574.10022	-578.14673	647.5968	-295.38275	-653.77765	698.23621	-264.50369	-778.01257	286.58713	-376.60406	-855.81573	316.23492	-318.0723
436	2.17	-626.5061	86.980156	-719.77521	-652.82208	89.25811	-674.77521	-463.62079	502.81506	-688.56927	-532.34485	491.21042	-620.48022	-462.44861	971.4292	-772.88574	-732.19037	1065.1387	-576.53235	-585.6925	639.88489	-301.1644	-662.27026	690.23401	-270.79138	-781.21454	279.84625	-394.41483	-861.0155	308.83463	-337.25372
437	2.175	-626.70581	86.693672	-719.63867	-653.89893	88.331924	-671.73639	-464.5596	502.76871	-688.13647	-533.28571	491.31055	-620.61615	-461.31494	972.17853	-771.85699	-734.38141	1062.1337	-578.93726	-593.83557	632.33459	-306.91275	-670.86115	682.38794	-277.58176	-785.4101	272.71844	-410.60541	-865.68573	301.87946	-356.19064
438	2.18	-626.75079	86.46228	-719.67059	-653.18475	88.346931	-672.99579	-465.73416	502.97571	-687.85968	-534.40717	491.75214	-620.88733	-460.12448	972.95221	-770.854	-736.53833	1059.2471	-581.41541	-601.90991	625.08093	-313.0553	-679.11761	674.46826	-285.41592	-786.35712	267.24579	-428.76917	-870.11664	294.59778	-376.01151
439	2.185	-626.6618	86.188118	-719.91156	-652.53711	89.933823	-667.23468	-467.03394	503.39597	-687.79388	-535.52423	492.241	-621.28363	-459.12134	973.84363	-769.54266	-738.69891	1056.4116	-583.96912	-610.0144	618.09778	-319.33032	-688.41016	667.25922	-292.09744	-789.39471	260.72247	-444.71396	-875.56897	286.69128	-399.3038
440	2.19	-626.55286	85.933243	-720.21881	-653.1496	88.016998	-673.17328	-468.45404	503.86346	-687.92719	-537.10016	492.67258	-622.34076	-458.19864	974.71759	-768.20819	-740.87189	1053.7383	-586.56055	-618.18073	611.31439	-325.90277	-697.23956	659.97815	-299.82437	-790.56415	254.91827	-461.94223	-878.90613	280.74869	-419.56104
441	2.195	-626.32452	85.755898	-720.57019	-654.34222	87.557747	-673.13593	-469.53119	504.47482	-688.22192	-537.81097	493.4986	-622.35486	-457.22412	975.6344	-766.85315	-743.22412	1051.36	-589.14813	-626.53986	604.77582	-332.7001	-706.11566	652.96716	-307.80679	-792.80273	249.536	-477.57828	-882.34149	274.87869	-440.29633
442	2.2	-626.07178	85.577782	-720.953	-653.88715	87.159897	-673.95227	-470.88754	504.90182	-688.45667	-539.13495	493.88574	-622.83441	-456.33957	976.56274	-765.31299	-745.26935	1049.1243	-591.57996	-635.00482	598.69836	-339.94775	-714.95416	646.20013	-316.24365	-794.0545	243.7652	-494.69928	-884.96649	269.09433	-459.38391
443	2.205	-625.83447	85.442978	-721.33032	-651.98236	89.572998	-668.96112	-471.82797	505.4375	-688.81171	-540.5813	494.29077	-623.66107	-455.80304	977.26508	-764.30896	-747.40686	1047.338	-594.17145	-642.88959	592.67029	-347.04541	-723.69214	639.56244	-325.05319	-794.96649	239.42203	-509.95749	-887.61041	264.09201	-478.96869
444	2.21	-625.68567	85.341896	-721.64056	-651.69629	90.017273	-668.65631	-472.93848	505.7757	-689.05811	-542.14294	494.68796	-624.46832	-454.88443	978.25256	-762.24323	-749.58191	1045.6869	-596.7298	-650.95984	586.95203	-354.36682	-732.25153	632.83038	-334.73398	-796.54431	234.94887	-524.42218	-890.56952	260.10455	-500.17267
445	2.215	-625.47192	85.262451	-721.93018	-651.95306	89.618629	-669.22119	-474.08569	506.09534	-689.25641	-543.85699	495.01959	-625.25659	-454.25235	979.27216	-760.51984	-751.71143	1044.167	-599.35779	-658.68604	581.60828	-361.50116	-740.93475	626.75348	-344.05533	-796.90771	230.22055	-540.16156	-893.00439	255.34445	-517.63196
446	2.22	-625.43994	85.135155	-722.20905	-650.99731	89.532776	-671.16022	-475.22986	506.33157	-689.37439	-545.67059	495.24402	-626.08789	-453.67154	980.33948	-759.06256	-753.76324	1042.7144	-601.99121	-666.88153	576.26031	-369.52979	-749.45776	620.85632	-353.7366	-797.60175	225.74562	-554.90466	-894.02814	251.62225	-537.42725
447	2.225	-625.48938	84.934296	-722.37177	-651.86639	89.804329	-669.01801	-476.50192	506.48373	-689.51514	-547.71722	495.49179	-626.83594	-453.81781	981.10693	-758.73828	-755.73395	1041.4229	-604.61938	-674.65845	571.25055	-377.32556	-757.79004	615.14062	-363.73862	-798.34595	221.28542	-568.74225	-895.17175	248.01193	-554.74756
